<svg xmlns="http://www.w3.org/2000/svg" width="22" height="22" viewBox="0 0 22 22">
    <path fill="#4A5324" fill-rule="nonzero" d="M21.93 9.734a.918.918 0 0 1-.198.999l-2.75 2.749a.91.91 0 0 1-.648.268.916.916 0 0 1-.648-1.565L18.871 11h-5.12a.916.916 0 1 1 0-1.833h5.12l-1.185-1.185a.916.916 0 1 1 1.296-1.297l2.75 2.75a.927.927 0 0 1 .199.299zm-6.346 3.1c.507 0 .917.41.917.917v5.5c0 .506-.41.917-.917.917h-4.583v.916a.918.918 0 0 1-1.097.899L.737 20.149A.916.916 0 0 1 0 19.251V.917C0 .898.012.882.013.864.013.837.006.81.01.784.021.707.053.639.083.569.093.544.095.517.108.492a.908.908 0 0 1 .244-.29C.359.198.362.188.369.183.39.166.413.165.434.152A.923.923 0 0 1 .822.017C.854.014.884 0 .917 0h14.667c.507 0 .917.41.917.917v5.5a.916.916 0 1 1-1.834 0V1.833H7.163l3.184.956a.918.918 0 0 1 .654.878v14.667h3.666v-4.583c0-.506.41-.917.917-.917z"/>
</svg>
